<?xml version="1.0" encoding="iso-8859-1"?>
<!-- Uploaded to: SVG Repo, www.svgrepo.com, Generator: SVG Repo Mixer Tools -->
<svg fill="#000000" height="800px" width="800px" version="1.1" id="Layer_1" xmlns="http://www.w3.org/2000/svg" xmlns:xlink="http://www.w3.org/1999/xlink" 
	 viewBox="0 0 512.004 512.004" xml:space="preserve">
<g>
	<g>
		<path d="M142.636,280h-22.824C108.784,280,100,271.008,100,259.984v-8.336c0-11.032,8.784-19.648,19.812-19.648h22.796
			c2.72-12,7.548-24,14.12-36H36.124C16.272,196,0,212.084,0,231.94v47.748C0,299.54,16.272,316,36.124,316H156.8
			C150.212,304,145.372,292,142.636,280z M55.752,279.568c-13.1,0-23.752-10.656-23.752-23.752s10.652-23.752,23.752-23.752
			c13.1,0,23.752,10.656,23.752,23.752S68.848,279.568,55.752,279.568z"/>
	</g>
</g>
<g>
	<g>
		<path d="M475.42,196H355.3c8.916,16,14.62,31.608,16.192,49.664c2.976-3.648,7.444-6.04,12.508-6.04
			c8.936,0,16.208,7.26,16.208,16.2c0,8.932-7.268,16.204-16.208,16.204c-5.068,0-9.544-2.236-12.516-5.884
			C369.896,284.208,364.172,300,355.232,316h120.192c19.852,0,36.58-16.46,36.58-36.312V231.94C512,212.084,495.272,196,475.42,196z
			 M424.004,272.024c-8.936,0-16.208-7.272-16.208-16.208c0-8.94,7.268-16.208,16.208-16.208s16.212,7.268,16.212,16.208
			C440.216,264.752,432.94,272.024,424.004,272.024z M464.056,272.024c-8.936,0-16.208-7.272-16.208-16.208
			c0-8.94,7.268-16.208,16.208-16.208s16.212,7.268,16.212,16.208C480.264,264.752,472.992,272.024,464.056,272.024z"/>
	</g>
</g>
<g>
	<g>
		<path d="M475.42,52H36.124C16.272,52,0,68.216,0,88.068v47.752C0,155.668,16.272,172,36.124,172h140.032
			c20.812-20,48.928-32.004,79.86-32.004c30.932,0,59.048,12.004,79.86,32.004h139.548c19.852,0,36.58-16.332,36.58-36.184V88.068
			C512,68.216,495.272,52,475.42,52z M55.752,135.692C42.652,135.692,32,125.04,32,111.94s10.652-23.752,23.752-23.752
			c13.1,0,23.752,10.652,23.752,23.752S68.848,135.692,55.752,135.692z M356,116c0,11.048-8.952,20-20,20H120
			c-11.048,0-20-8.952-20-20v-8c0-11.048,8.952-20,20-20h216c11.048,0,20,8.952,20,20V116z M384,128.152
			c-8.936,0-16.208-7.272-16.208-16.208c0-8.936,7.268-16.208,16.208-16.208s16.208,7.268,16.208,16.208
			S392.936,128.152,384,128.152z M424.004,128.152c-8.936,0-16.208-7.272-16.208-16.208c0-8.936,7.268-16.208,16.208-16.208
			s16.212,7.268,16.212,16.208S432.94,128.152,424.004,128.152z M464.056,128.152c-8.936,0-16.208-7.272-16.208-16.208
			c0-8.936,7.268-16.208,16.208-16.208s16.212,7.268,16.212,16.208S472.992,128.152,464.056,128.152z"/>
	</g>
</g>
<g>
	<g>
		<path d="M475.42,340H335.876c-20.812,20-48.928,32.004-79.86,32.004S196.968,360,176.156,340H36.124
			C16.272,340,0,355.84,0,375.692v47.752c0,19.848,16.272,36.56,36.124,36.56H475.42c19.852,0,36.58-16.708,36.58-36.56v-47.752
			C512,355.84,495.272,340,475.42,340z M55.752,423.316C42.656,423.316,32,412.66,32,399.564s10.652-23.752,23.752-23.752
			c13.1,0,23.752,10.656,23.752,23.752S68.848,423.316,55.752,423.316z M356,404c0,11.048-8.952,20-20,20H120
			c-11.048,0-20-8.952-20-20v-8c0-11.048,8.952-20,20-20h216c11.048,0,20,8.952,20,20V404z M384,415.772
			c-8.936,0-16.208-7.268-16.208-16.208S375.064,383.36,384,383.36c8.936,0,16.208,7.268,16.208,16.208S392.936,415.772,384,415.772
			z M424.004,415.772c-8.936,0-16.208-7.268-16.208-16.208s7.268-16.208,16.208-16.208s16.212,7.268,16.212,16.208
			S432.94,415.772,424.004,415.772z M464.056,415.772c-8.936,0-16.208-7.268-16.208-16.208s7.268-16.208,16.208-16.208
			s16.212,7.268,16.212,16.208S472.992,415.772,464.056,415.772z"/>
	</g>
</g>
<g>
	<g>
		<path d="M256.016,163.872c-50.784,0-91.944,41.168-91.944,91.948c0,50.776,41.16,91.936,91.944,91.936
			c50.78,0,91.944-41.16,91.944-91.936C347.96,205.04,306.796,163.872,256.016,163.872z M302.628,287.304
			c4.652,4.656,4.652,12.216,0,16.868c-2.252,2.252-5.248,3.492-8.432,3.492s-6.18-1.24-8.432-3.492l-28.248-28.248l-28.248,28.248
			c-4.508,4.504-12.368,4.5-16.876,0c-4.652-4.652-4.648-12.216,0.004-16.876l28.248-28.244L212.392,230.8
			c-4.652-4.644-4.652-12.22,0-16.868c4.512-4.504,12.368-4.504,16.872,0l28.248,28.244l28.248-28.244
			c4.496-4.504,12.364-4.504,16.868-0.008c2.256,2.26,3.496,5.252,3.496,8.44c0,3.184-1.244,6.184-3.496,8.432l-28.248,28.248
			L302.628,287.304z"/>
	</g>
</g>
</svg>